<svg width="24" height="24" viewBox="0 0 24 24" fill="none" xmlns="http://www.w3.org/2000/svg">
<g clip-path="url(#clip0_146_1204)">
<path d="M14.8497 17.842L18.7287 13.963C18.9109 13.7744 19.0117 13.5218 19.0094 13.2596C19.0071 12.9974 18.902 12.7466 18.7166 12.5612C18.5312 12.3758 18.2803 12.2706 18.0181 12.2683C17.756 12.266 17.5034 12.3668 17.3147 12.549L13.4357 16.428C13.3182 16.5432 13.1873 16.6439 13.0457 16.728C13.0457 16.713 13.0537 16.701 13.0537 16.686L13.0217 1.00198C13.0217 0.736767 12.9164 0.482413 12.7289 0.294877C12.5413 0.10734 12.287 0.00198335 12.0217 0.00198334C11.7565 0.00198333 11.5022 0.10734 11.3146 0.294877C11.1271 0.482413 11.0217 0.736767 11.0217 1.00198L11.0537 16.68C11.0537 16.708 11.0677 16.731 11.0697 16.758C10.9006 16.6693 10.745 16.5568 10.6077 16.424L6.72875 12.545C6.6365 12.4495 6.52616 12.3733 6.40415 12.3209C6.28215 12.2685 6.15093 12.2409 6.01815 12.2397C5.88537 12.2386 5.75369 12.2639 5.6308 12.3142C5.5079 12.3644 5.39625 12.4387 5.30235 12.5326C5.20846 12.6265 5.13421 12.7381 5.08393 12.861C5.03365 12.9839 5.00834 13.1156 5.0095 13.2484C5.01065 13.3812 5.03824 13.5124 5.09065 13.6344C5.14306 13.7564 5.21924 13.8667 5.31475 13.959L9.19375 17.838C9.94386 18.5879 10.9611 19.0091 12.0217 19.0091C13.0824 19.0091 14.0996 18.5879 14.8497 17.838L14.8497 17.842Z" fill="#F3F1EF"/>
<path d="M21.998 16.998L21.998 18.998C21.998 19.7937 21.682 20.5567 21.1194 21.1193C20.5568 21.6819 19.7937 21.998 18.998 21.998L4.99805 21.998C4.2024 21.998 3.43934 21.6819 2.87673 21.1193C2.31412 20.5567 1.99805 19.7937 1.99805 18.998L1.99805 16.998C1.99805 16.7328 1.89269 16.4784 1.70515 16.2909C1.51762 16.1034 1.26326 15.998 0.998047 15.998C0.73283 15.998 0.478476 16.1034 0.29094 16.2909C0.103403 16.4784 -0.00195344 16.7328 -0.00195343 16.998L-0.00195334 18.998C-0.000365428 20.3236 0.526929 21.5945 1.46427 22.5318C2.4016 23.4691 3.67245 23.9964 4.99805 23.998L18.998 23.998C20.3236 23.9964 21.5945 23.4691 22.5318 22.5318C23.4692 21.5945 23.9965 20.3236 23.998 18.998L23.998 16.998C23.998 16.7328 23.8927 16.4784 23.7052 16.2909C23.5176 16.1034 23.2633 15.998 22.998 15.998C22.7328 15.998 22.4785 16.1034 22.2909 16.2909C22.1034 16.4784 21.998 16.7328 21.998 16.998Z" fill="#F3F1EF"/>
</g>
<defs>
<clipPath id="clip0_146_1204">
<rect width="24" height="24" fill="white"/>
</clipPath>
</defs>
</svg>
