<?xml version="1.0" encoding="UTF-8"?>
<svg id="Layer_1" xmlns="http://www.w3.org/2000/svg" version="1.1" viewBox="0 0 50 50">
  <!-- Generator: Adobe Illustrator 30.1.0, SVG Export Plug-In . SVG Version: 2.1.1 Build 136)  -->
  <defs>
    <style>
      .st0 {
        fill: #f3f1ef;
      }
    </style>
  </defs>
  <path class="st0" d="M24.19,16.16c.1-1.22.73-7.74,1.98-7.9,1.25-.15,1.96,6.69,2.06,7.81.5,5.96.5,11.88,0,17.83-.1,1.23-.72,7.68-1.99,7.84-1.27.16-1.96-6.72-2.05-7.83-.49-5.93-.49-11.82,0-17.75h0Z"/>
  <path class="st0" d="M15.22,17.59c.14-1.11.92-6,2.36-5.9,1.42.1,2.15,4.75,2.3,5.96.54,4.25.56,8.49.1,12.75-.14,1.29-.87,6.66-2.41,6.74-1.52.08-2.29-5.27-2.42-6.46-.5-4.37-.49-8.74.07-13.1h0Z"/>
  <path class="st0" d="M7.08,18.62c.96-.77,2.18-.76,3.13-.02.68.53,1.16,1.25,1.49,2.08.81,2.06.81,4.37.02,6.44-.32.82-.79,1.52-1.43,2.06-.95.8-2.24.82-3.2.04-.68-.55-1.16-1.26-1.48-2.1-.8-2.07-.8-4.38.02-6.44.32-.81.78-1.51,1.46-2.06h0Z"/>
  <path class="st0" d="M35.55,11.5c.75.02,1.13,4.37,1.18,5,.4,5.23.4,10.42-.01,15.64-.05.65-.43,4.79-1.14,4.84-.7-.11-1.07-4.15-1.13-4.84-.42-5.26-.42-10.47,0-15.73.06-.77.41-4.59,1.11-4.91Z"/>
  <path class="st0" d="M43.77,19.56c.05-.49.2-1.25.45-1.51.28-.27.54,1.5.56,1.69.29,2.91.31,5.81-.05,8.71-.06.52-.13.98-.49,1.41-.31-.5-.4-.98-.47-1.53-.33-2.91-.33-5.8,0-8.76Z"/>
</svg>