<svg width="102" height="53" viewBox="0 0 102 53" fill="none" xmlns="http://www.w3.org/2000/svg">
<g clip-path="url(#clip0_22_2187)">
<path d="M19.1897 17.5979C19.2904 16.3755 19.9192 9.85759 21.1723 9.70259C22.4255 9.54759 23.1365 16.3912 23.2293 17.5086C23.7267 23.4669 23.7259 29.384 23.2337 35.3415C23.1321 36.5683 22.5121 43.0258 21.245 43.1825C19.9779 43.3393 19.2878 36.4667 19.195 35.3476C18.7037 29.4156 18.7011 23.5291 19.1888 17.5988L19.1897 17.5979Z" fill="#F3F1EF"/>
<path d="M10.2198 19.0288C10.3626 17.9141 11.1393 13.0294 12.5755 13.131C13.9994 13.2325 14.7262 17.8834 14.8803 19.0893C15.4233 23.3399 15.4399 27.5792 14.9784 31.8439C14.8392 33.1294 14.1132 38.5019 12.5728 38.5877C11.05 38.6726 10.2846 33.3221 10.148 32.1302C9.64712 27.7587 9.66025 23.3925 10.2207 19.0297L10.2198 19.0288Z" fill="#F3F1EF"/>
<path d="M2.07497 20.0587C3.03912 19.2854 4.25898 19.3003 5.20124 20.0368C5.88341 20.5701 6.36242 21.2847 6.69169 22.1183C7.50609 24.1797 7.50609 26.4881 6.71008 28.5574C6.39482 29.377 5.92457 30.0732 5.27655 30.6205C4.32816 31.4209 3.03562 31.442 2.07322 30.6573C1.39543 30.1048 0.918168 29.3972 0.594158 28.5574C-0.203609 26.489 -0.201857 24.1806 0.611672 22.1166C0.931304 21.3074 1.39368 20.6042 2.07497 20.0578V20.0587Z" fill="#F3F1EF"/>
<path d="M30.5502 12.9453C31.2998 12.9646 31.6772 17.3186 31.7263 17.9482C32.1309 23.1779 32.1309 28.3638 31.714 33.5927C31.6615 34.2477 31.284 38.3793 30.573 38.4344C29.8733 38.3276 29.4994 34.2827 29.4451 33.5918C29.0265 28.3332 29.0274 23.1175 29.4398 17.8589C29.5002 17.09 29.8488 13.2641 30.5502 12.9453Z" fill="#F3F1EF"/>
<path d="M38.7669 21.0018C38.8204 20.5114 38.9631 19.7478 39.2214 19.4938C39.4982 19.2215 39.7635 20.9974 39.7819 21.1796C40.0744 24.093 40.0875 26.9899 39.7311 29.8867C39.6672 30.4033 39.598 30.8657 39.2424 31.2992C38.9307 30.7948 38.8379 30.3149 38.7748 29.7667C38.4438 26.8559 38.4421 23.9643 38.7669 21.0018Z" fill="#F3F1EF"/>
</g>
<path d="M48.248 18.2H51.728V35H48.248V18.2ZM51.728 31.976H58.592V35H51.728V31.976ZM65.9953 35.384C64.6193 35.384 63.4113 35.088 62.3713 34.496C61.3473 33.888 60.5473 33.048 59.9713 31.976C59.4113 30.904 59.1313 29.68 59.1313 28.304C59.1313 26.912 59.4113 25.68 59.9713 24.608C60.5473 23.536 61.3473 22.696 62.3713 22.088C63.4113 21.48 64.6193 21.176 65.9953 21.176C67.3873 21.176 68.5953 21.48 69.6193 22.088C70.6433 22.696 71.4353 23.536 71.9953 24.608C72.5713 25.68 72.8593 26.912 72.8593 28.304C72.8593 29.68 72.5713 30.904 71.9953 31.976C71.4353 33.048 70.6433 33.888 69.6193 34.496C68.5953 35.088 67.3873 35.384 65.9953 35.384ZM65.9953 32.312C66.7793 32.312 67.4113 32.136 67.8913 31.784C68.3873 31.416 68.7553 30.928 68.9953 30.32C69.2353 29.712 69.3553 29.04 69.3553 28.304C69.3553 27.552 69.2353 26.872 68.9953 26.264C68.7553 25.64 68.3873 25.152 67.8913 24.8C67.4113 24.432 66.7793 24.248 65.9953 24.248C65.2273 24.248 64.5953 24.432 64.0993 24.8C63.6033 25.152 63.2353 25.64 62.9953 26.264C62.7553 26.872 62.6353 27.552 62.6353 28.304C62.6353 29.04 62.7553 29.712 62.9953 30.32C63.2353 30.928 63.6033 31.416 64.0993 31.784C64.5953 32.136 65.2273 32.312 65.9953 32.312ZM80.1089 34.904C78.8449 34.904 77.7569 34.624 76.8449 34.064C75.9489 33.504 75.2609 32.712 74.7809 31.688C74.3009 30.648 74.0609 29.44 74.0609 28.064C74.0609 26.672 74.3009 25.464 74.7809 24.44C75.2609 23.4 75.9489 22.6 76.8449 22.04C77.7569 21.464 78.8449 21.176 80.1089 21.176C81.6449 21.176 82.7969 21.6 83.5649 22.448C84.3329 23.28 84.8689 24.504 85.1729 26.12L85.1249 30.056C84.9489 31.048 84.6769 31.912 84.3089 32.648C83.9409 33.368 83.4209 33.928 82.7489 34.328C82.0769 34.712 81.1969 34.904 80.1089 34.904ZM81.1889 40.184C79.7649 40.184 78.6049 39.96 77.7089 39.512C76.8129 39.064 76.1249 38.48 75.6449 37.76C75.1809 37.056 74.8849 36.328 74.7569 35.576H78.2849C78.4609 36.2 78.8129 36.608 79.3409 36.8C79.8689 37.008 80.4849 37.112 81.1889 37.112C81.6689 37.112 82.1169 37.024 82.5329 36.848C82.9489 36.672 83.2849 36.376 83.5409 35.96C83.8129 35.56 83.9489 35 83.9489 34.28H87.3809C87.3809 35.544 87.1009 36.616 86.5409 37.496C85.9969 38.376 85.2609 39.04 84.3329 39.488C83.4049 39.952 82.3569 40.184 81.1889 40.184ZM80.7089 31.832C81.8129 31.832 82.6289 31.488 83.1569 30.8C83.6849 30.096 83.9489 29.184 83.9489 28.064C83.9489 26.928 83.6849 26.008 83.1569 25.304C82.6289 24.6 81.8129 24.248 80.7089 24.248C79.6689 24.248 78.8849 24.6 78.3569 25.304C77.8289 26.008 77.5649 26.928 77.5649 28.064C77.5649 29.184 77.8289 30.096 78.3569 30.8C78.8849 31.488 79.6689 31.832 80.7089 31.832ZM83.9489 34.28V21.56H87.3809V34.28H83.9489ZM92.7748 30.752C92.8548 31.392 93.1348 31.84 93.6148 32.096C94.0948 32.336 94.6468 32.456 95.2708 32.456C95.8788 32.456 96.3828 32.352 96.7828 32.144C97.1828 31.92 97.3828 31.56 97.3828 31.064C97.3828 30.744 97.2388 30.504 96.9508 30.344C96.6628 30.168 96.2868 30.032 95.8228 29.936C95.3588 29.824 94.8468 29.72 94.2868 29.624C93.7268 29.528 93.1588 29.4 92.5828 29.24C92.0228 29.08 91.5108 28.856 91.0468 28.568C90.5828 28.28 90.2068 27.888 89.9188 27.392C89.6308 26.896 89.4868 26.264 89.4868 25.496C89.4868 24.776 89.7188 24.088 90.1828 23.432C90.6628 22.76 91.3268 22.216 92.1748 21.8C93.0228 21.384 93.9908 21.176 95.0788 21.176C96.0548 21.176 96.9588 21.376 97.7908 21.776C98.6228 22.16 99.2948 22.696 99.8068 23.384C100.319 24.072 100.575 24.872 100.575 25.784H97.1428C97.0788 25.144 96.8388 24.704 96.4228 24.464C96.0228 24.224 95.5428 24.104 94.9828 24.104C94.2948 24.104 93.7748 24.24 93.4228 24.512C93.0708 24.768 92.8948 25.096 92.8948 25.496C92.8948 25.848 93.0388 26.12 93.3268 26.312C93.6148 26.504 93.9908 26.656 94.4548 26.768C94.9188 26.88 95.4308 26.984 95.9908 27.08C96.5668 27.16 97.1348 27.28 97.6948 27.44C98.2548 27.584 98.7668 27.8 99.2308 28.088C99.6948 28.36 100.071 28.736 100.359 29.216C100.647 29.696 100.791 30.312 100.791 31.064C100.791 31.912 100.551 32.664 100.071 33.32C99.6068 33.96 98.9508 34.464 98.1028 34.832C97.2708 35.2 96.2868 35.384 95.1508 35.384C94.0948 35.384 93.1268 35.184 92.2467 34.784C91.3828 34.368 90.6868 33.816 90.1588 33.128C89.6308 32.424 89.3508 31.632 89.3188 30.752H92.7748Z" fill="#F3F1EF"/>
<defs>
<clipPath id="clip0_22_2187">
<rect width="40" height="40" fill="white" transform="translate(0 6.5)"/>
</clipPath>
</defs>
</svg>
