<svg width="584" height="204" viewBox="0 0 584 204" fill="none" xmlns="http://www.w3.org/2000/svg">
<path d="M128.821 0.0158691C136.446 -0.927657 140.771 40.7315 141.336 47.5334C144.362 83.8029 144.358 119.822 141.363 156.086C140.745 163.554 136.973 202.863 129.264 203.817C121.555 204.771 117.357 162.936 116.792 156.123C113.803 120.014 113.787 84.1814 116.754 48.0823L116.76 48.0764C117.372 40.6348 121.198 0.960112 128.821 0.0158691ZM76.5186 20.885C85.1813 21.5037 89.6035 49.815 90.541 57.1555C93.8446 83.0299 93.9455 108.836 91.1377 134.796C90.2907 142.622 85.8735 175.324 76.502 175.847C67.2372 176.364 62.5801 143.794 61.749 136.538C58.7017 109.928 58.7816 83.3496 62.1914 56.7922L62.1855 56.7874C63.0543 50.0019 67.7807 20.2665 76.5186 20.885ZM185.876 19.7551C190.436 19.8735 192.733 46.3768 193.031 50.2092C195.493 82.0438 195.492 113.612 192.956 145.442C192.637 149.43 190.34 174.578 186.015 174.914C181.758 174.264 179.483 149.641 179.152 145.436C176.606 113.425 176.611 81.6758 179.12 49.6653C179.488 44.9843 181.609 21.6957 185.876 19.7551ZM332.535 49.4045C340.128 49.4046 346.893 50.9137 352.831 53.9329C358.769 56.9521 363.442 61.0916 366.849 66.3508C370.353 71.6102 372.105 77.5521 372.105 84.175H349.911C349.522 79.3054 347.818 75.5066 344.801 72.7795C341.88 70.0524 337.548 68.6887 331.805 68.6887C326.159 68.6888 321.827 69.7118 318.81 71.7571C315.792 73.8023 314.283 76.3828 314.283 79.4993C314.283 82.4212 315.354 84.7107 317.495 86.3665C319.637 88.0221 322.46 89.385 325.964 90.4563C329.566 91.5276 333.46 92.5507 337.646 93.5247C341.929 94.4012 346.163 95.5215 350.349 96.885C354.534 98.2486 358.38 100.099 361.885 102.437C365.486 104.774 368.358 107.891 370.499 111.786C372.641 115.585 373.712 120.455 373.712 126.396C373.712 135.843 370.159 143.197 363.053 148.456C355.947 153.716 345.969 156.345 333.119 156.345C325.234 156.345 318.176 154.836 311.946 151.817C305.716 148.797 300.752 144.658 297.053 139.399C293.354 134.139 291.358 128.149 291.066 121.429H313.407C313.797 124.643 314.916 127.419 316.766 129.756C318.615 132.093 321 133.895 323.92 135.161C326.938 136.428 330.296 137.061 333.995 137.061C338.96 137.061 343.146 136.233 346.553 134.577C349.96 132.824 351.663 130.097 351.663 126.396C351.663 123.766 350.593 121.672 348.451 120.114C346.31 118.555 343.438 117.29 339.836 116.316C336.332 115.342 332.487 114.368 328.301 113.394C324.115 112.42 319.881 111.25 315.598 109.887C311.412 108.426 307.518 106.478 303.916 104.043C300.412 101.608 297.589 98.443 295.447 94.5471C293.306 90.5539 292.234 85.5378 292.234 79.4993C292.234 73.6558 293.938 68.494 297.345 64.0139C300.849 59.4364 305.619 55.8812 311.654 53.3489C317.787 50.7192 324.748 49.4045 332.535 49.4045ZM419.561 69.8577C431.144 69.8577 439.906 73.2175 445.844 79.9377C451.879 86.6581 454.896 95.7653 454.896 107.258V154.008H434.017V144.404C432.044 147.822 429.416 150.586 426.132 152.693C422.433 155.128 417.955 156.345 412.698 156.345C407.344 156.345 402.574 155.371 398.389 153.423C394.3 151.378 391.039 148.456 388.605 144.657C386.269 140.859 385.101 136.233 385.101 130.779C385.101 125.519 386.123 121.185 388.167 117.777C390.309 114.368 393.132 111.689 396.637 109.741C400.238 107.696 404.229 106.186 408.609 105.212C413.087 104.238 417.663 103.605 422.335 103.313C426.29 102.99 430.112 102.769 433.8 102.647C433.631 100.919 433.363 99.2895 432.994 97.761C432.313 94.8394 430.901 92.5023 428.76 90.7493C426.716 88.9961 423.649 88.1194 419.561 88.1194C414.402 88.1194 410.508 89.4342 407.88 92.0637C405.349 94.596 404.083 97.567 404.083 100.976H382.327C382.327 95.4244 383.787 90.3109 386.707 85.636C389.627 80.8636 393.863 77.065 399.411 74.2405C404.96 71.3187 411.676 69.8577 419.561 69.8577ZM542.121 69.8577C550.59 69.8577 557.94 71.7084 564.17 75.4094C570.4 79.1105 575.218 84.2239 578.625 90.7493C582.129 97.2747 583.882 104.774 583.882 113.247C583.882 121.623 582.129 129.074 578.625 135.6C575.218 142.125 570.4 147.239 564.17 150.94C557.94 154.543 550.59 156.345 542.121 156.345C533.749 156.345 526.4 154.543 520.072 150.94C513.842 147.239 508.975 142.125 505.471 135.6C502.064 129.074 500.36 121.623 500.36 113.247C500.36 104.774 502.064 97.2747 505.471 90.7493C508.975 84.2239 513.842 79.1105 520.072 75.4094C526.4 71.7084 533.749 69.8577 542.121 69.8577ZM489.396 154.008H468.516V72.1946H489.396V154.008ZM542.121 88.5579C537.449 88.5579 533.604 89.6773 530.586 91.9172C527.568 94.0599 525.329 97.0309 523.869 100.829C522.409 104.53 521.679 108.67 521.679 113.247C521.679 117.728 522.409 121.819 523.869 125.52C525.329 129.221 527.568 132.191 530.586 134.431C533.604 136.574 537.449 137.645 542.121 137.645C546.891 137.645 550.736 136.574 553.656 134.431C556.674 132.191 558.913 129.221 560.373 125.52C561.833 121.819 562.563 117.728 562.563 113.247C562.563 108.67 561.833 104.53 560.373 100.829C558.913 97.0309 556.674 94.0599 553.656 91.9172C550.736 89.6773 546.891 88.5579 542.121 88.5579ZM434.017 116.351C425.153 116.36 418.582 117.517 414.305 119.822C409.34 122.451 406.858 125.714 406.857 129.61C406.857 132.239 407.831 134.187 409.777 135.453C411.821 136.719 414.158 137.353 416.786 137.353C419.317 137.353 421.897 136.963 424.525 136.184C427.251 135.405 429.49 133.896 431.242 131.656C433.092 129.415 434.017 126.104 434.017 121.721V116.351ZM238.632 59.6174C240.316 57.96 241.93 68.7685 242.042 69.8792C243.822 87.6138 243.902 105.248 241.733 122.882C241.345 126.027 240.923 128.841 238.76 131.48C236.864 128.409 236.299 125.488 235.915 122.152C233.901 104.433 233.891 86.8306 235.867 68.7971C236.193 65.8119 237.06 61.1636 238.632 59.6174ZM12.6328 63.0559C18.4987 58.3489 25.9197 58.4399 31.6523 62.9231C35.8026 66.1694 38.7174 70.5188 40.7207 75.593C45.6755 88.1413 45.675 102.194 40.832 114.79C38.914 119.779 36.0528 124.017 32.1104 127.349C26.3404 132.221 18.4772 132.349 12.6221 127.573C8.49846 124.209 5.59433 119.902 3.62305 114.79C-1.23056 102.199 -1.21996 88.1473 3.72949 75.5833C5.67414 70.6574 8.48783 66.382 12.6328 63.0559ZM490.126 66.7893H467.785V44.4368H490.126V66.7893Z" fill="#F3F1EF"/>
</svg>
